<svg width="306" height="334" viewBox="0 0 306 334" fill="none" xmlns="http://www.w3.org/2000/svg">
<rect width="306" height="334" fill="white"/>
<path d="M14.368 19.896H18.966C20.0427 19.896 21.0117 20.0607 21.873 20.39C22.7343 20.7193 23.469 21.188 24.077 21.796C24.685 22.3913 25.1473 23.107 25.464 23.943C25.7933 24.779 25.958 25.6973 25.958 26.698C25.958 27.7113 25.7933 28.636 25.464 29.472C25.1473 30.308 24.685 31.0237 24.077 31.619C23.469 32.2143 22.7343 32.6767 21.873 33.006C21.0117 33.3353 20.0427 33.5 18.966 33.5H14.368V19.896ZM18.852 31.068C19.5993 31.068 20.258 30.9667 20.828 30.764C21.398 30.5487 21.873 30.251 22.253 29.871C22.633 29.491 22.918 29.035 23.108 28.503C23.298 27.9583 23.393 27.3567 23.393 26.698C23.393 26.0393 23.298 25.444 23.108 24.912C22.918 24.3673 22.633 23.905 22.253 23.525C21.873 23.145 21.398 22.8537 20.828 22.651C20.258 22.4357 19.5993 22.328 18.852 22.328H16.933V31.068H18.852ZM36.2579 31.258C35.8273 32.018 35.2446 32.6323 34.5099 33.101C33.7879 33.5697 32.9013 33.804 31.8499 33.804C31.1406 33.804 30.4819 33.6837 29.8739 33.443C29.2786 33.1897 28.7593 32.8413 28.3159 32.398C27.8726 31.9547 27.5243 31.4353 27.2709 30.84C27.0303 30.232 26.9099 29.567 26.9099 28.845C26.9099 28.1737 27.0303 27.5403 27.2709 26.945C27.5116 26.337 27.8473 25.8113 28.2779 25.368C28.7086 24.912 29.2153 24.551 29.7979 24.285C30.3933 24.019 31.0456 23.886 31.7549 23.886C32.5023 23.886 33.1673 24.0127 33.7499 24.266C34.3326 24.5067 34.8203 24.8487 35.2129 25.292C35.6056 25.7227 35.9033 26.2357 36.1059 26.831C36.3086 27.4263 36.4099 28.0723 36.4099 28.769C36.4099 28.8577 36.4099 28.9337 36.4099 28.997C36.3973 29.073 36.3909 29.1427 36.3909 29.206C36.3783 29.2693 36.3719 29.339 36.3719 29.415H29.3609C29.4116 29.795 29.5129 30.1243 29.6649 30.403C29.8296 30.669 30.0259 30.897 30.2539 31.087C30.4946 31.2643 30.7543 31.3973 31.0329 31.486C31.3116 31.562 31.5966 31.6 31.8879 31.6C32.4579 31.6 32.9266 31.4733 33.2939 31.22C33.6739 30.954 33.9716 30.6247 34.1869 30.232L36.2579 31.258ZM33.9969 27.648C33.9843 27.4833 33.9273 27.2997 33.8259 27.097C33.7373 26.8943 33.5979 26.7043 33.4079 26.527C33.2306 26.3497 33.0026 26.204 32.7239 26.09C32.4579 25.976 32.1349 25.919 31.7549 25.919C31.2229 25.919 30.7543 26.071 30.3489 26.375C29.9436 26.679 29.6586 27.1033 29.4939 27.648H33.9969ZM46.9273 31.125C46.522 31.9103 45.952 32.5563 45.2173 33.063C44.4953 33.557 43.5897 33.804 42.5003 33.804C41.7783 33.804 41.1133 33.6837 40.5053 33.443C39.91 33.1897 39.3907 32.8413 38.9473 32.398C38.5167 31.9547 38.1747 31.4353 37.9213 30.84C37.6807 30.232 37.5603 29.567 37.5603 28.845C37.5603 28.123 37.6807 27.458 37.9213 26.85C38.1747 26.242 38.5167 25.7227 38.9473 25.292C39.3907 24.8487 39.91 24.5067 40.5053 24.266C41.1133 24.0127 41.7783 23.886 42.5003 23.886C43.577 23.886 44.4827 24.133 45.2173 24.627C45.952 25.121 46.4903 25.7607 46.8323 26.546L44.5523 27.496C44.337 27.0653 44.0583 26.7423 43.7163 26.527C43.387 26.299 42.969 26.185 42.4623 26.185C42.133 26.185 41.8227 26.2483 41.5313 26.375C41.24 26.5017 40.9803 26.679 40.7523 26.907C40.537 27.135 40.366 27.4137 40.2393 27.743C40.1127 28.0723 40.0493 28.4397 40.0493 28.845C40.0493 29.2503 40.1127 29.6177 40.2393 29.947C40.366 30.2763 40.537 30.555 40.7523 30.783C40.9803 31.011 41.24 31.1883 41.5313 31.315C41.8227 31.4417 42.133 31.505 42.4623 31.505C42.9817 31.505 43.4187 31.391 43.7733 31.163C44.1407 30.9223 44.432 30.5803 44.6473 30.137L46.9273 31.125ZM57.1691 31.258C56.7384 32.018 56.1557 32.6323 55.4211 33.101C54.6991 33.5697 53.8124 33.804 52.7611 33.804C52.0517 33.804 51.3931 33.6837 50.7851 33.443C50.1897 33.1897 49.6704 32.8413 49.2271 32.398C48.7837 31.9547 48.4354 31.4353 48.1821 30.84C47.9414 30.232 47.8211 29.567 47.8211 28.845C47.8211 28.1737 47.9414 27.5403 48.1821 26.945C48.4227 26.337 48.7584 25.8113 49.1891 25.368C49.6197 24.912 50.1264 24.551 50.7091 24.285C51.3044 24.019 51.9567 23.886 52.6661 23.886C53.4134 23.886 54.0784 24.0127 54.6611 24.266C55.2437 24.5067 55.7314 24.8487 56.1241 25.292C56.5167 25.7227 56.8144 26.2357 57.0171 26.831C57.2197 27.4263 57.3211 28.0723 57.3211 28.769C57.3211 28.8577 57.3211 28.9337 57.3211 28.997C57.3084 29.073 57.3021 29.1427 57.3021 29.206C57.2894 29.2693 57.2831 29.339 57.2831 29.415H50.2721C50.3227 29.795 50.4241 30.1243 50.5761 30.403C50.7407 30.669 50.9371 30.897 51.1651 31.087C51.4057 31.2643 51.6654 31.3973 51.9441 31.486C52.2227 31.562 52.5077 31.6 52.7991 31.6C53.3691 31.6 53.8377 31.4733 54.2051 31.22C54.5851 30.954 54.8827 30.6247 55.0981 30.232L57.1691 31.258ZM54.9081 27.648C54.8954 27.4833 54.8384 27.2997 54.7371 27.097C54.6484 26.8943 54.5091 26.7043 54.3191 26.527C54.1417 26.3497 53.9137 26.204 53.6351 26.09C53.3691 25.976 53.0461 25.919 52.6661 25.919C52.1341 25.919 51.6654 26.071 51.2601 26.375C50.8547 26.679 50.5697 27.1033 50.4051 27.648H54.9081ZM58.9107 24.19H61.2477V25.406H61.3997C61.691 24.95 62.0837 24.5827 62.5777 24.304C63.0843 24.0253 63.6417 23.886 64.2497 23.886C64.959 23.886 65.5543 24.0507 66.0357 24.38C66.517 24.7093 66.859 25.1147 67.0617 25.596C67.353 25.1273 67.7647 24.7283 68.2967 24.399C68.8287 24.057 69.4747 23.886 70.2347 23.886C70.8047 23.886 71.2987 23.981 71.7167 24.171C72.1347 24.3483 72.4767 24.6017 72.7427 24.931C73.0213 25.2603 73.2303 25.6593 73.3697 26.128C73.509 26.584 73.5787 27.0843 73.5787 27.629V33.5H71.0897V28.085C71.0897 26.8183 70.5703 26.185 69.5317 26.185C69.2023 26.185 68.911 26.261 68.6577 26.413C68.4043 26.5523 68.189 26.7487 68.0117 27.002C67.847 27.2427 67.714 27.534 67.6127 27.876C67.524 28.218 67.4797 28.5853 67.4797 28.978V33.5H64.9907V28.085C64.9907 26.8183 64.446 26.185 63.3567 26.185C63.04 26.185 62.7613 26.261 62.5207 26.413C62.28 26.5523 62.0773 26.7487 61.9127 27.002C61.748 27.2427 61.6213 27.534 61.5327 27.876C61.444 28.218 61.3997 28.5853 61.3997 28.978V33.5H58.9107V24.19ZM75.6285 19.896H78.1175V23.981L77.9655 25.311H78.1175C78.3455 24.9183 78.7001 24.5827 79.1815 24.304C79.6628 24.0253 80.2581 23.886 80.9675 23.886C81.5628 23.886 82.1265 24.0127 82.6585 24.266C83.2031 24.5067 83.6781 24.8487 84.0835 25.292C84.5015 25.7227 84.8308 26.242 85.0715 26.85C85.3121 27.458 85.4325 28.123 85.4325 28.845C85.4325 29.567 85.3121 30.232 85.0715 30.84C84.8308 31.448 84.5015 31.9737 84.0835 32.417C83.6781 32.8477 83.2031 33.1897 82.6585 33.443C82.1265 33.6837 81.5628 33.804 80.9675 33.804C80.2581 33.804 79.6628 33.6647 79.1815 33.386C78.7001 33.1073 78.3455 32.7717 78.1175 32.379H77.9655V33.5H75.6285V19.896ZM80.4545 31.505C80.7838 31.505 81.0941 31.4417 81.3855 31.315C81.6895 31.1883 81.9555 31.011 82.1835 30.783C82.4115 30.555 82.5951 30.2763 82.7345 29.947C82.8738 29.6177 82.9435 29.2503 82.9435 28.845C82.9435 28.4397 82.8738 28.0723 82.7345 27.743C82.5951 27.4137 82.4115 27.135 82.1835 26.907C81.9555 26.679 81.6895 26.5017 81.3855 26.375C81.0941 26.2483 80.7838 26.185 80.4545 26.185C80.1251 26.185 79.8085 26.2483 79.5045 26.375C79.2131 26.489 78.9535 26.66 78.7255 26.888C78.4975 27.116 78.3138 27.3947 78.1745 27.724C78.0351 28.0533 77.9655 28.427 77.9655 28.845C77.9655 29.263 78.0351 29.6367 78.1745 29.966C78.3138 30.2953 78.4975 30.574 78.7255 30.802C78.9535 31.03 79.2131 31.2073 79.5045 31.334C79.8085 31.448 80.1251 31.505 80.4545 31.505ZM95.837 31.258C95.4064 32.018 94.8237 32.6323 94.089 33.101C93.367 33.5697 92.4804 33.804 91.429 33.804C90.7197 33.804 90.061 33.6837 89.453 33.443C88.8577 33.1897 88.3384 32.8413 87.895 32.398C87.4517 31.9547 87.1034 31.4353 86.85 30.84C86.6094 30.232 86.489 29.567 86.489 28.845C86.489 28.1737 86.6094 27.5403 86.85 26.945C87.0907 26.337 87.4264 25.8113 87.857 25.368C88.2877 24.912 88.7944 24.551 89.377 24.285C89.9724 24.019 90.6247 23.886 91.334 23.886C92.0814 23.886 92.7464 24.0127 93.329 24.266C93.9117 24.5067 94.3994 24.8487 94.792 25.292C95.1847 25.7227 95.4824 26.2357 95.685 26.831C95.8877 27.4263 95.989 28.0723 95.989 28.769C95.989 28.8577 95.989 28.9337 95.989 28.997C95.9764 29.073 95.97 29.1427 95.97 29.206C95.9574 29.2693 95.951 29.339 95.951 29.415H88.94C88.9907 29.795 89.092 30.1243 89.244 30.403C89.4087 30.669 89.605 30.897 89.833 31.087C90.0737 31.2643 90.3334 31.3973 90.612 31.486C90.8907 31.562 91.1757 31.6 91.467 31.6C92.037 31.6 92.5057 31.4733 92.873 31.22C93.253 30.954 93.5507 30.6247 93.766 30.232L95.837 31.258ZM93.576 27.648C93.5634 27.4833 93.5064 27.2997 93.405 27.097C93.3164 26.8943 93.177 26.7043 92.987 26.527C92.8097 26.3497 92.5817 26.204 92.303 26.09C92.037 25.976 91.714 25.919 91.334 25.919C90.802 25.919 90.3334 26.071 89.928 26.375C89.5227 26.679 89.2377 27.1033 89.073 27.648H93.576ZM97.5786 24.19H99.9156V25.482H100.068C100.182 25.254 100.334 25.045 100.524 24.855C100.714 24.665 100.923 24.5003 101.151 24.361C101.391 24.2217 101.645 24.114 101.911 24.038C102.189 23.962 102.462 23.924 102.728 23.924C103.057 23.924 103.336 23.9557 103.564 24.019C103.804 24.0823 104.007 24.1647 104.172 24.266L103.507 26.527C103.355 26.451 103.184 26.394 102.994 26.356C102.816 26.3053 102.595 26.28 102.329 26.28C101.987 26.28 101.676 26.3497 101.398 26.489C101.119 26.6157 100.878 26.7993 100.676 27.04C100.486 27.2807 100.334 27.5657 100.22 27.895C100.118 28.2117 100.068 28.56 100.068 28.94V33.5H97.5786V24.19ZM109.301 33.5V31.239C110.048 30.5043 110.738 29.8203 111.372 29.187C111.638 28.921 111.91 28.6487 112.189 28.37C112.467 28.0913 112.727 27.8317 112.968 27.591C113.208 27.3503 113.424 27.135 113.614 26.945C113.804 26.7423 113.949 26.584 114.051 26.47C114.253 26.2293 114.431 26.014 114.583 25.824C114.747 25.634 114.874 25.4503 114.963 25.273C115.064 25.083 115.14 24.8993 115.191 24.722C115.241 24.532 115.267 24.3293 115.267 24.114C115.267 23.696 115.102 23.335 114.773 23.031C114.443 22.7143 113.994 22.556 113.424 22.556C112.854 22.556 112.41 22.7207 112.094 23.05C111.777 23.3667 111.562 23.7277 111.448 24.133L109.187 23.202C109.288 22.86 109.453 22.5117 109.681 22.157C109.909 21.7897 110.2 21.4667 110.555 21.188C110.909 20.8967 111.327 20.6623 111.809 20.485C112.303 20.295 112.854 20.2 113.462 20.2C114.12 20.2 114.716 20.3013 115.248 20.504C115.78 20.694 116.229 20.96 116.597 21.302C116.964 21.644 117.249 22.0493 117.452 22.518C117.654 22.974 117.756 23.468 117.756 24C117.756 24.8107 117.553 25.558 117.148 26.242C116.755 26.9133 116.274 27.5403 115.704 28.123L114.07 29.757C113.639 30.1877 113.151 30.669 112.607 31.201L112.683 31.315H117.946V33.5H109.301ZM125.069 33.804C124.233 33.804 123.48 33.633 122.808 33.291C122.137 32.9363 121.561 32.455 121.079 31.847C120.611 31.239 120.25 30.5233 119.996 29.7C119.743 28.864 119.616 27.9647 119.616 27.002C119.616 26.0393 119.743 25.1463 119.996 24.323C120.25 23.487 120.611 22.765 121.079 22.157C121.561 21.549 122.137 21.074 122.808 20.732C123.48 20.3773 124.233 20.2 125.069 20.2C125.905 20.2 126.659 20.3773 127.33 20.732C128.002 21.074 128.572 21.549 129.04 22.157C129.522 22.765 129.889 23.487 130.142 24.323C130.396 25.1463 130.522 26.0393 130.522 27.002C130.522 27.9647 130.396 28.864 130.142 29.7C129.889 30.5233 129.522 31.239 129.04 31.847C128.572 32.455 128.002 32.9363 127.33 33.291C126.659 33.633 125.905 33.804 125.069 33.804ZM125.069 31.448C125.525 31.448 125.937 31.3403 126.304 31.125C126.672 30.897 126.982 30.5867 127.235 30.194C127.501 29.7887 127.698 29.3137 127.824 28.769C127.964 28.2243 128.033 27.6353 128.033 27.002C128.033 26.356 127.964 25.767 127.824 25.235C127.698 24.6903 127.501 24.2217 127.235 23.829C126.982 23.4237 126.672 23.1133 126.304 22.898C125.937 22.67 125.525 22.556 125.069 22.556C124.601 22.556 124.183 22.67 123.815 22.898C123.448 23.1133 123.138 23.4237 122.884 23.829C122.631 24.2217 122.435 24.6903 122.295 25.235C122.169 25.767 122.105 26.356 122.105 27.002C122.105 27.6353 122.169 28.2243 122.295 28.769C122.435 29.3137 122.631 29.7887 122.884 30.194C123.138 30.5867 123.448 30.897 123.815 31.125C124.183 31.3403 124.601 31.448 125.069 31.448ZM132.049 33.5V31.239C132.796 30.5043 133.486 29.8203 134.12 29.187C134.386 28.921 134.658 28.6487 134.937 28.37C135.215 28.0913 135.475 27.8317 135.716 27.591C135.956 27.3503 136.172 27.135 136.362 26.945C136.552 26.7423 136.697 26.584 136.799 26.47C137.001 26.2293 137.179 26.014 137.331 25.824C137.495 25.634 137.622 25.4503 137.711 25.273C137.812 25.083 137.888 24.8993 137.939 24.722C137.989 24.532 138.015 24.3293 138.015 24.114C138.015 23.696 137.85 23.335 137.521 23.031C137.191 22.7143 136.742 22.556 136.172 22.556C135.602 22.556 135.158 22.7207 134.842 23.05C134.525 23.3667 134.31 23.7277 134.196 24.133L131.935 23.202C132.036 22.86 132.201 22.5117 132.429 22.157C132.657 21.7897 132.948 21.4667 133.303 21.188C133.657 20.8967 134.075 20.6623 134.557 20.485C135.051 20.295 135.602 20.2 136.21 20.2C136.868 20.2 137.464 20.3013 137.996 20.504C138.528 20.694 138.977 20.96 139.345 21.302C139.712 21.644 139.997 22.0493 140.2 22.518C140.402 22.974 140.504 23.468 140.504 24C140.504 24.8107 140.301 25.558 139.896 26.242C139.503 26.9133 139.022 27.5403 138.452 28.123L136.818 29.757C136.387 30.1877 135.899 30.669 135.355 31.201L135.431 31.315H140.694V33.5H132.049ZM142.402 33.5V31.239C143.15 30.5043 143.84 29.8203 144.473 29.187C144.739 28.921 145.012 28.6487 145.29 28.37C145.569 28.0913 145.829 27.8317 146.069 27.591C146.31 27.3503 146.525 27.135 146.715 26.945C146.905 26.7423 147.051 26.584 147.152 26.47C147.355 26.2293 147.532 26.014 147.684 25.824C147.849 25.634 147.976 25.4503 148.064 25.273C148.166 25.083 148.242 24.8993 148.292 24.722C148.343 24.532 148.368 24.3293 148.368 24.114C148.368 23.696 148.204 23.335 147.874 23.031C147.545 22.7143 147.095 22.556 146.525 22.556C145.955 22.556 145.512 22.7207 145.195 23.05C144.879 23.3667 144.663 23.7277 144.549 24.133L142.288 23.202C142.39 22.86 142.554 22.5117 142.782 22.157C143.01 21.7897 143.302 21.4667 143.656 21.188C144.011 20.8967 144.429 20.6623 144.91 20.485C145.404 20.295 145.955 20.2 146.563 20.2C147.222 20.2 147.817 20.3013 148.349 20.504C148.881 20.694 149.331 20.96 149.698 21.302C150.066 21.644 150.351 22.0493 150.553 22.518C150.756 22.974 150.857 23.468 150.857 24C150.857 24.8107 150.655 25.558 150.249 26.242C149.857 26.9133 149.375 27.5403 148.805 28.123L147.171 29.757C146.741 30.1877 146.253 30.669 145.708 31.201L145.784 31.315H151.047V33.5H142.402Z" fill="#5F5F5F"/>
<path d="M245.85 17.9C246.1 18.15 246.225 18.446 246.225 18.788C246.225 19.1293 246.1 19.425 245.85 19.675L238.525 27L245.875 34.35C246.108 34.5833 246.225 34.875 246.225 35.225C246.225 35.575 246.1 35.875 245.85 36.125C245.6 36.375 245.304 36.5 244.962 36.5C244.621 36.5 244.325 36.375 244.075 36.125L235.675 27.7C235.575 27.6 235.504 27.4917 235.462 27.375C235.421 27.2583 235.4 27.1333 235.4 27C235.4 26.8667 235.421 26.7417 235.462 26.625C235.504 26.5083 235.575 26.4 235.675 26.3L244.1 17.875C244.333 17.6417 244.621 17.525 244.962 17.525C245.304 17.525 245.6 17.65 245.85 17.9Z" fill="#5F5F5F"/>
<path d="M276.15 36.1C275.9 35.85 275.775 35.554 275.775 35.212C275.775 34.8707 275.9 34.575 276.15 34.325L283.475 27L276.125 19.65C275.892 19.4167 275.775 19.125 275.775 18.775C275.775 18.425 275.9 18.125 276.15 17.875C276.4 17.625 276.696 17.5 277.038 17.5C277.379 17.5 277.675 17.625 277.925 17.875L286.325 26.3C286.425 26.4 286.496 26.5083 286.538 26.625C286.579 26.7417 286.6 26.8667 286.6 27C286.6 27.1333 286.579 27.2583 286.538 27.375C286.496 27.4917 286.425 27.6 286.325 27.7L277.9 36.125C277.667 36.3583 277.379 36.475 277.038 36.475C276.696 36.475 276.4 36.35 276.15 36.1Z" fill="#5F5F5F"/>
<path d="M33.0646 74.304C32.482 74.304 31.9246 74.2217 31.3926 74.057C30.8606 73.8923 30.373 73.6453 29.9296 73.316C29.4863 72.9867 29.1 72.5877 28.7706 72.119C28.4413 71.6377 28.1816 71.0803 27.9916 70.447L30.4046 69.497C30.582 70.181 30.8923 70.751 31.3356 71.207C31.779 71.6503 32.3616 71.872 33.0836 71.872C33.3496 71.872 33.603 71.8403 33.8436 71.777C34.097 71.701 34.3186 71.5997 34.5086 71.473C34.7113 71.3337 34.8696 71.1627 34.9836 70.96C35.0976 70.7573 35.1546 70.523 35.1546 70.257C35.1546 70.0037 35.1103 69.7757 35.0216 69.573C34.933 69.3703 34.781 69.1803 34.5656 69.003C34.363 68.8257 34.0906 68.6547 33.7486 68.49C33.4193 68.3253 33.0076 68.1543 32.5136 67.977L31.6776 67.673C31.3103 67.5463 30.9366 67.3753 30.5566 67.16C30.1893 66.9447 29.8536 66.685 29.5496 66.381C29.2456 66.077 28.9923 65.7223 28.7896 65.317C28.5996 64.899 28.5046 64.4303 28.5046 63.911C28.5046 63.379 28.606 62.885 28.8086 62.429C29.024 61.9603 29.3216 61.555 29.7016 61.213C30.0943 60.8583 30.5566 60.586 31.0886 60.396C31.6333 60.1933 32.235 60.092 32.8936 60.092C33.5776 60.092 34.1666 60.187 34.6606 60.377C35.1673 60.5543 35.5916 60.7887 35.9336 61.08C36.2883 61.3587 36.5733 61.669 36.7886 62.011C37.004 62.353 37.1623 62.676 37.2636 62.98L35.0026 63.93C34.876 63.55 34.6416 63.208 34.2996 62.904C33.9703 62.6 33.5143 62.448 32.9316 62.448C32.3743 62.448 31.912 62.581 31.5446 62.847C31.1773 63.1003 30.9936 63.436 30.9936 63.854C30.9936 64.2593 31.171 64.6077 31.5256 64.899C31.8803 65.1777 32.444 65.45 33.2166 65.716L34.0716 66.001C34.6163 66.191 35.1103 66.4127 35.5536 66.666C36.0096 66.9067 36.396 67.198 36.7126 67.54C37.042 67.882 37.289 68.2747 37.4536 68.718C37.631 69.1487 37.7196 69.649 37.7196 70.219C37.7196 70.9283 37.574 71.5427 37.2826 72.062C37.004 72.5687 36.643 72.9867 36.1996 73.316C35.7563 73.6453 35.256 73.8923 34.6986 74.057C34.1413 74.2217 33.5966 74.304 33.0646 74.304Z" fill="#5F5F5F"/>
<path d="M66.2225 60.396H68.7495L72.9105 67.597H73.0625L77.2235 60.396H79.7695V74H77.2235V67.293L77.3755 65.013H77.2235L73.7655 71.112H72.2265L68.7495 65.013H68.5975L68.7495 67.293V74H66.2225V60.396Z" fill="#5F5F5F"/>
<path d="M111.217 74V62.828H107.417V60.396H117.582V62.828H113.782V74H111.217Z" fill="#5F5F5F"/>
<path d="M144.24 60.396H146.957L149.066 68.338L149.37 69.801H149.522L149.921 68.338L151.878 62.22H154.272L156.248 68.338L156.628 69.782H156.78L157.065 68.338L159.041 60.396H161.758L158.148 74H155.678L153.55 67.445L153.151 65.944H152.999L152.6 67.445L150.472 74H148.002L144.24 60.396Z" fill="#5F5F5F"/>
<path d="M191.217 74V62.828H187.417V60.396H197.582V62.828H193.782V74H191.217Z" fill="#5F5F5F"/>
<path d="M229.071 60.396H237.697V62.828H231.636V66.134H237.089V68.566H231.636V74H229.071V60.396Z" fill="#5F5F5F"/>
<path d="M273.065 74.304C272.482 74.304 271.925 74.2217 271.393 74.057C270.861 73.8923 270.373 73.6453 269.93 73.316C269.486 72.9867 269.1 72.5877 268.771 72.119C268.441 71.6377 268.182 71.0803 267.992 70.447L270.405 69.497C270.582 70.181 270.892 70.751 271.336 71.207C271.779 71.6503 272.362 71.872 273.084 71.872C273.35 71.872 273.603 71.8403 273.844 71.777C274.097 71.701 274.319 71.5997 274.509 71.473C274.711 71.3337 274.87 71.1627 274.984 70.96C275.098 70.7573 275.155 70.523 275.155 70.257C275.155 70.0037 275.11 69.7757 275.022 69.573C274.933 69.3703 274.781 69.1803 274.566 69.003C274.363 68.8257 274.091 68.6547 273.749 68.49C273.419 68.3253 273.008 68.1543 272.514 67.977L271.678 67.673C271.31 67.5463 270.937 67.3753 270.557 67.16C270.189 66.9447 269.854 66.685 269.55 66.381C269.246 66.077 268.992 65.7223 268.79 65.317C268.6 64.899 268.505 64.4303 268.505 63.911C268.505 63.379 268.606 62.885 268.809 62.429C269.024 61.9603 269.322 61.555 269.702 61.213C270.094 60.8583 270.557 60.586 271.089 60.396C271.633 60.1933 272.235 60.092 272.894 60.092C273.578 60.092 274.167 60.187 274.661 60.377C275.167 60.5543 275.592 60.7887 275.934 61.08C276.288 61.3587 276.573 61.669 276.789 62.011C277.004 62.353 277.162 62.676 277.264 62.98L275.003 63.93C274.876 63.55 274.642 63.208 274.3 62.904C273.97 62.6 273.514 62.448 272.932 62.448C272.374 62.448 271.912 62.581 271.545 62.847C271.177 63.1003 270.994 63.436 270.994 63.854C270.994 64.2593 271.171 64.6077 271.526 64.899C271.88 65.1777 272.444 65.45 273.217 65.716L274.072 66.001C274.616 66.191 275.11 66.4127 275.554 66.666C276.01 66.9067 276.396 67.198 276.713 67.54C277.042 67.882 277.289 68.2747 277.454 68.718C277.631 69.1487 277.72 69.649 277.72 70.219C277.72 70.9283 277.574 71.5427 277.283 72.062C277.004 72.5687 276.643 72.9867 276.2 73.316C275.756 73.6453 275.256 73.8923 274.699 74.057C274.141 74.2217 273.597 74.304 273.065 74.304Z" fill="#5F5F5F"/>
<path d="M31.6358 112.328V114H23.3518V112.252L26.7148 108.851C27.8421 107.698 28.6211 106.837 29.0518 106.267C29.4825 105.684 29.6978 105.076 29.6978 104.443C29.6978 103.873 29.4761 103.385 29.0328 102.98C28.5895 102.575 28.0195 102.372 27.3228 102.372C26.7275 102.372 26.2145 102.549 25.7838 102.904C25.3531 103.259 25.0745 103.689 24.9478 104.196L23.3518 103.55C23.6051 102.752 24.0928 102.081 24.8148 101.536C25.5368 100.979 26.3855 100.7 27.3608 100.7C28.5388 100.7 29.5205 101.061 30.3058 101.783C31.0911 102.505 31.4838 103.392 31.4838 104.443C31.4838 105.697 30.7935 107.052 29.4128 108.509L25.6128 112.328H31.6358ZM41.6399 102.79L35.3319 114.304L33.7739 113.506L39.7969 102.676H33.2229L33.2609 101.004H41.6399V102.79Z" fill="#9E9E9E"/>
<path d="M71.941 112.328V114H63.657V112.252L67.02 108.851C68.1473 107.698 68.9263 106.837 69.357 106.267C69.7876 105.684 70.003 105.076 70.003 104.443C70.003 103.873 69.7813 103.385 69.338 102.98C68.8946 102.575 68.3246 102.372 67.628 102.372C67.0326 102.372 66.5196 102.549 66.089 102.904C65.6583 103.259 65.3796 103.689 65.253 104.196L63.657 103.55C63.9103 102.752 64.398 102.081 65.12 101.536C65.842 100.979 66.6906 100.7 67.666 100.7C68.844 100.7 69.8256 101.061 70.611 101.783C71.3963 102.505 71.789 103.392 71.789 104.443C71.789 105.697 71.0986 107.052 69.718 108.509L65.918 112.328H71.941ZM82.3441 110.409C82.3441 111.524 81.9197 112.448 81.0711 113.183C80.2097 113.93 79.1647 114.304 77.9361 114.304C76.7074 114.304 75.6624 113.93 74.8011 113.183C73.9524 112.448 73.5281 111.524 73.5281 110.409C73.5281 109.725 73.7117 109.104 74.0791 108.547C74.4464 107.977 74.9721 107.527 75.6561 107.198V107.122C75.1494 106.793 74.7377 106.387 74.4211 105.906C74.1171 105.425 73.9651 104.918 73.9651 104.386C73.9651 103.335 74.3387 102.454 75.0861 101.745C75.8207 101.048 76.7707 100.7 77.9361 100.7C79.1014 100.7 80.0514 101.048 80.7861 101.745C81.5334 102.454 81.9071 103.335 81.9071 104.386C81.9071 104.918 81.7487 105.425 81.4321 105.906C81.1281 106.387 80.7227 106.793 80.2161 107.122V107.198C80.9001 107.527 81.4257 107.977 81.7931 108.547C82.1604 109.104 82.3441 109.725 82.3441 110.409ZM75.7511 104.348C75.7511 104.956 75.9537 105.45 76.3591 105.83C76.7644 106.197 77.2901 106.381 77.9361 106.381C78.5821 106.381 79.1077 106.197 79.5131 105.83C79.9184 105.45 80.1211 104.956 80.1211 104.348C80.1211 103.74 79.9184 103.259 79.5131 102.904C79.1077 102.549 78.5821 102.372 77.9361 102.372C77.2901 102.372 76.7644 102.549 76.3591 102.904C75.9537 103.259 75.7511 103.74 75.7511 104.348ZM75.3141 110.314C75.3141 110.656 75.3774 110.966 75.5041 111.245C75.6434 111.524 75.8271 111.771 76.0551 111.986C76.2957 112.189 76.5744 112.347 76.8911 112.461C77.2077 112.575 77.5561 112.632 77.9361 112.632C78.3161 112.632 78.6644 112.575 78.9811 112.461C79.2977 112.347 79.5701 112.189 79.7981 111.986C80.0387 111.771 80.2224 111.524 80.3491 111.245C80.4884 110.966 80.5581 110.656 80.5581 110.314C80.5581 109.655 80.3047 109.111 79.7981 108.68C79.2914 108.237 78.6707 108.015 77.9361 108.015C77.2014 108.015 76.5744 108.237 76.0551 108.68C75.5611 109.123 75.3141 109.668 75.3141 110.314Z" fill="#9E9E9E"/>
<path d="M111.895 112.328V114H103.611V112.252L106.974 108.851C108.101 107.698 108.88 106.837 109.311 106.267C109.741 105.684 109.957 105.076 109.957 104.443C109.957 103.873 109.735 103.385 109.292 102.98C108.848 102.575 108.278 102.372 107.582 102.372C106.986 102.372 106.473 102.549 106.043 102.904C105.612 103.259 105.333 103.689 105.207 104.196L103.611 103.55C103.864 102.752 104.352 102.081 105.074 101.536C105.796 100.979 106.644 100.7 107.62 100.7C108.798 100.7 109.779 101.061 110.565 101.783C111.35 102.505 111.743 103.392 111.743 104.443C111.743 105.697 111.052 107.052 109.672 108.509L105.872 112.328H111.895ZM117.548 109.25C116.509 109.25 115.565 108.838 114.717 108.015C113.893 107.166 113.482 106.178 113.482 105.051C113.482 103.873 113.925 102.86 114.812 102.011C115.698 101.137 116.737 100.7 117.928 100.7C119.182 100.7 120.239 101.131 121.101 101.992C121.962 102.853 122.393 103.873 122.393 105.051C122.393 106.102 121.968 107.299 121.12 108.642L117.339 114.304L115.933 113.335L119.144 108.889L119.106 108.851C118.7 109.117 118.181 109.25 117.548 109.25ZM120.626 105.032C120.626 104.297 120.36 103.67 119.828 103.151C119.308 102.632 118.675 102.372 117.928 102.372C117.18 102.372 116.547 102.632 116.028 103.151C115.508 103.67 115.249 104.297 115.249 105.032C115.249 105.767 115.508 106.394 116.028 106.913C116.572 107.432 117.206 107.692 117.928 107.692C118.65 107.692 119.283 107.432 119.828 106.913C120.36 106.406 120.626 105.779 120.626 105.032Z" fill="#9E9E9E"/>
<path d="M151.224 110.314C151.224 111.454 150.8 112.404 149.951 113.164C149.115 113.924 148.076 114.304 146.835 114.304C145.86 114.304 144.979 114.013 144.194 113.43C143.396 112.822 142.858 112.03 142.579 111.055L144.175 110.39C144.378 111.112 144.707 111.669 145.163 112.062C145.632 112.442 146.189 112.632 146.835 112.632C147.544 112.632 148.159 112.41 148.678 111.967C149.185 111.511 149.438 110.96 149.438 110.314C149.438 109.668 149.172 109.123 148.64 108.68C148.121 108.237 147.494 108.015 146.759 108.015H145.638V106.381H146.626C147.323 106.381 147.893 106.191 148.336 105.811C148.779 105.418 149.001 104.912 149.001 104.291C149.001 103.721 148.792 103.259 148.374 102.904C147.956 102.549 147.405 102.372 146.721 102.372C145.619 102.372 144.865 102.936 144.46 104.063L142.845 103.379C143.136 102.581 143.624 101.935 144.308 101.441C144.992 100.947 145.796 100.7 146.721 100.7C147.874 100.7 148.843 101.042 149.628 101.726C150.401 102.385 150.787 103.24 150.787 104.291C150.787 105.545 150.204 106.476 149.039 107.084V107.16C149.723 107.451 150.255 107.876 150.635 108.433C151.028 108.99 151.224 109.617 151.224 110.314ZM152.825 107.502C152.825 105.526 153.312 103.898 154.288 102.619C155.263 101.34 156.517 100.7 158.05 100.7C159.582 100.7 160.836 101.346 161.812 102.638C162.787 103.917 163.275 105.539 163.275 107.502C163.275 109.453 162.787 111.08 161.812 112.385C160.836 113.664 159.582 114.304 158.05 114.304C156.517 114.304 155.263 113.664 154.288 112.385C153.312 111.08 152.825 109.453 152.825 107.502ZM161.489 107.502C161.489 106.007 161.172 104.779 160.539 103.816C159.918 102.853 159.088 102.372 158.05 102.372C157.011 102.372 156.181 102.853 155.561 103.816C154.927 104.779 154.611 106.007 154.611 107.502C154.611 108.997 154.927 110.232 155.561 111.207C156.181 112.157 157.011 112.632 158.05 112.632C159.088 112.632 159.918 112.151 160.539 111.188C161.172 110.213 161.489 108.984 161.489 107.502Z" fill="#9E9E9E"/>
<path d="M194.554 101.004V114H192.806V103.17L190.279 104.272L189.614 102.79L193.433 101.004H194.554Z" fill="black"/>
<path d="M236.608 112.328V114H228.324V112.252L231.687 108.851C232.815 107.698 233.594 106.837 234.024 106.267C234.455 105.684 234.67 105.076 234.67 104.443C234.67 103.873 234.449 103.385 234.005 102.98C233.562 102.575 232.992 102.372 232.295 102.372C231.7 102.372 231.187 102.549 230.756 102.904C230.326 103.259 230.047 103.689 229.92 104.196L228.324 103.55C228.578 102.752 229.065 102.081 229.787 101.536C230.509 100.979 231.358 100.7 232.333 100.7C233.511 100.7 234.493 101.061 235.278 101.783C236.064 102.505 236.456 103.392 236.456 104.443C236.456 105.697 235.766 107.052 234.385 108.509L230.585 112.328H236.608Z" fill="black"/>
<path d="M277.282 110.314C277.282 111.454 276.858 112.404 276.009 113.164C275.173 113.924 274.134 114.304 272.893 114.304C271.918 114.304 271.037 114.013 270.252 113.43C269.454 112.822 268.916 112.03 268.637 111.055L270.233 110.39C270.436 111.112 270.765 111.669 271.221 112.062C271.69 112.442 272.247 112.632 272.893 112.632C273.602 112.632 274.217 112.41 274.736 111.967C275.243 111.511 275.496 110.96 275.496 110.314C275.496 109.668 275.23 109.123 274.698 108.68C274.179 108.237 273.552 108.015 272.817 108.015H271.696V106.381H272.684C273.381 106.381 273.951 106.191 274.394 105.811C274.837 105.418 275.059 104.912 275.059 104.291C275.059 103.721 274.85 103.259 274.432 102.904C274.014 102.549 273.463 102.372 272.779 102.372C271.677 102.372 270.923 102.936 270.518 104.063L268.903 103.379C269.194 102.581 269.682 101.935 270.366 101.441C271.05 100.947 271.854 100.7 272.779 100.7C273.932 100.7 274.901 101.042 275.686 101.726C276.459 102.385 276.845 103.24 276.845 104.291C276.845 105.545 276.262 106.476 275.097 107.084V107.16C275.781 107.451 276.313 107.876 276.693 108.433C277.086 108.99 277.282 109.617 277.282 110.314Z" fill="black"/>
<path d="M35.5888 151.264V154H33.8408V151.264H27.6658V149.934L33.6888 141.004H35.5888V149.63H37.2608V151.264H35.5888ZM29.6418 149.63H33.8408V143.569H33.7648L29.6418 149.63Z" fill="black"/>
<path d="M77.3635 149.934C77.3635 151.175 76.9328 152.214 76.0715 153.05C75.2101 153.886 74.1461 154.304 72.8795 154.304C71.8661 154.304 70.9478 153.987 70.1245 153.354C69.3011 152.721 68.7565 151.866 68.4905 150.789L70.0485 150.162C70.2385 150.922 70.5805 151.524 71.0745 151.967C71.5811 152.41 72.1701 152.632 72.8415 152.632C73.6521 152.632 74.3108 152.385 74.8175 151.891C75.3368 151.384 75.5965 150.738 75.5965 149.953C75.5965 149.155 75.3368 148.503 74.8175 147.996C74.3108 147.489 73.6585 147.236 72.8605 147.236C71.9358 147.236 71.2075 147.61 70.6755 148.357L68.9085 147.597L69.7445 141.004H76.5655V142.676H71.2075L70.7325 146.4L70.8085 146.419C71.4545 145.9 72.2398 145.64 73.1645 145.64C74.3298 145.64 75.3178 146.052 76.1285 146.875C76.9518 147.698 77.3635 148.718 77.3635 149.934Z" fill="black"/>
<path d="M113.391 145.754C114.442 145.754 115.38 146.172 116.203 147.008C117.039 147.831 117.457 148.813 117.457 149.953C117.457 151.118 117.014 152.138 116.127 153.012C115.228 153.873 114.189 154.304 113.011 154.304C111.757 154.304 110.699 153.873 109.838 153.012C108.977 152.151 108.546 151.131 108.546 149.953C108.546 148.902 108.97 147.705 109.819 146.362L113.6 140.7L115.006 141.669L111.795 146.115L111.833 146.153C112.226 145.887 112.745 145.754 113.391 145.754ZM110.313 149.972C110.313 150.719 110.573 151.353 111.092 151.872C111.611 152.379 112.251 152.632 113.011 152.632C113.771 152.632 114.404 152.379 114.911 151.872C115.43 151.353 115.69 150.719 115.69 149.972C115.69 149.237 115.424 148.61 114.892 148.091C114.373 147.572 113.746 147.312 113.011 147.312C112.289 147.312 111.656 147.572 111.111 148.091C110.579 148.61 110.313 149.237 110.313 149.972Z" fill="black"/>
<path d="M156.704 142.79L150.396 154.304L148.838 153.506L154.861 142.676H148.287L148.325 141.004H156.704V142.79Z" fill="black"/>
<path d="M197.409 150.409C197.409 151.524 196.984 152.448 196.136 153.183C195.274 153.93 194.229 154.304 193.001 154.304C191.772 154.304 190.727 153.93 189.866 153.183C189.017 152.448 188.593 151.524 188.593 150.409C188.593 149.725 188.776 149.104 189.144 148.547C189.511 147.977 190.037 147.527 190.721 147.198V147.122C190.214 146.793 189.802 146.387 189.486 145.906C189.182 145.425 189.03 144.918 189.03 144.386C189.03 143.335 189.403 142.454 190.151 141.745C190.885 141.048 191.835 140.7 193.001 140.7C194.166 140.7 195.116 141.048 195.851 141.745C196.598 142.454 196.972 143.335 196.972 144.386C196.972 144.918 196.813 145.425 196.497 145.906C196.193 146.387 195.787 146.793 195.281 147.122V147.198C195.965 147.527 196.49 147.977 196.858 148.547C197.225 149.104 197.409 149.725 197.409 150.409ZM190.816 144.348C190.816 144.956 191.018 145.45 191.424 145.83C191.829 146.197 192.355 146.381 193.001 146.381C193.647 146.381 194.172 146.197 194.578 145.83C194.983 145.45 195.186 144.956 195.186 144.348C195.186 143.74 194.983 143.259 194.578 142.904C194.172 142.549 193.647 142.372 193.001 142.372C192.355 142.372 191.829 142.549 191.424 142.904C191.018 143.259 190.816 143.74 190.816 144.348ZM190.379 150.314C190.379 150.656 190.442 150.966 190.569 151.245C190.708 151.524 190.892 151.771 191.12 151.986C191.36 152.189 191.639 152.347 191.956 152.461C192.272 152.575 192.621 152.632 193.001 152.632C193.381 152.632 193.729 152.575 194.046 152.461C194.362 152.347 194.635 152.189 194.863 151.986C195.103 151.771 195.287 151.524 195.414 151.245C195.553 150.966 195.623 150.656 195.623 150.314C195.623 149.655 195.369 149.111 194.863 148.68C194.356 148.237 193.735 148.015 193.001 148.015C192.266 148.015 191.639 148.237 191.12 148.68C190.626 149.123 190.379 149.668 190.379 150.314Z" fill="black"/>
<g filter="url(#filter0_dii_246_376)">
<circle cx="233" cy="147.5" r="17.5" fill="#830020"/>
<path d="M232.945 154V143.93L230.646 144.899L229.734 142.79L233.553 141.004H235.434V154H232.945Z" fill="white"/>
</g>
<path d="M268.496 141.004V154H266.748V143.17L264.221 144.272L263.556 142.79L267.375 141.004H268.496ZM270.924 147.502C270.924 145.526 271.412 143.898 272.387 142.619C273.362 141.34 274.616 140.7 276.149 140.7C277.682 140.7 278.936 141.346 279.911 142.638C280.886 143.917 281.374 145.539 281.374 147.502C281.374 149.453 280.886 151.08 279.911 152.385C278.936 153.664 277.682 154.304 276.149 154.304C274.616 154.304 273.362 153.664 272.387 152.385C271.412 151.08 270.924 149.453 270.924 147.502ZM279.588 147.502C279.588 146.007 279.271 144.779 278.638 143.816C278.017 142.853 277.188 142.372 276.149 142.372C275.11 142.372 274.281 142.853 273.66 143.816C273.027 144.779 272.71 146.007 272.71 147.502C272.71 148.997 273.027 150.232 273.66 151.207C274.281 152.157 275.11 152.632 276.149 152.632C277.188 152.632 278.017 152.151 278.638 151.188C279.271 150.213 279.588 148.984 279.588 147.502Z" fill="black"/>
<path d="M31.408 181.004V194H29.66V183.17L27.133 184.272L26.468 182.79L30.287 181.004H31.408ZM38.7 181.004V194H36.952V183.17L34.425 184.272L33.76 182.79L37.579 181.004H38.7Z" fill="black"/>
<path d="M69.5257 181.004V194H67.7777V183.17L65.2507 184.272L64.5857 182.79L68.4047 181.004H69.5257ZM80.3472 192.328V194H72.0632V192.252L75.4262 188.851C76.5536 187.698 77.3326 186.837 77.7632 186.267C78.1939 185.684 78.4092 185.076 78.4092 184.443C78.4092 183.873 78.1876 183.385 77.7442 182.98C77.3009 182.575 76.7309 182.372 76.0342 182.372C75.4389 182.372 74.9259 182.549 74.4952 182.904C74.0646 183.259 73.7859 183.689 73.6592 184.196L72.0632 183.55C72.3166 182.752 72.8042 182.081 73.5262 181.536C74.2482 180.979 75.0969 180.7 76.0722 180.7C77.2502 180.7 78.2319 181.061 79.0172 181.783C79.8026 182.505 80.1952 183.392 80.1952 184.443C80.1952 185.697 79.5049 187.052 78.1242 188.509L74.3242 192.328H80.3472Z" fill="black"/>
<path d="M109.507 181.004V194H107.759V183.17L105.232 184.272L104.567 182.79L108.386 181.004H109.507ZM120.428 190.314C120.428 191.454 120.004 192.404 119.155 193.164C118.319 193.924 117.28 194.304 116.039 194.304C115.064 194.304 114.183 194.013 113.398 193.43C112.6 192.822 112.062 192.03 111.783 191.055L113.379 190.39C113.582 191.112 113.911 191.669 114.367 192.062C114.836 192.442 115.393 192.632 116.039 192.632C116.748 192.632 117.363 192.41 117.882 191.967C118.389 191.511 118.642 190.96 118.642 190.314C118.642 189.668 118.376 189.123 117.844 188.68C117.325 188.237 116.698 188.015 115.963 188.015H114.842V186.381H115.83C116.527 186.381 117.097 186.191 117.54 185.811C117.983 185.418 118.205 184.912 118.205 184.291C118.205 183.721 117.996 183.259 117.578 182.904C117.16 182.549 116.609 182.372 115.925 182.372C114.823 182.372 114.069 182.936 113.664 184.063L112.049 183.379C112.34 182.581 112.828 181.935 113.512 181.441C114.196 180.947 115 180.7 115.925 180.7C117.078 180.7 118.047 181.042 118.832 181.726C119.605 182.385 119.991 183.24 119.991 184.291C119.991 185.545 119.408 186.476 118.243 187.084V187.16C118.927 187.451 119.459 187.876 119.839 188.433C120.232 188.99 120.428 189.617 120.428 190.314Z" fill="black"/>
<path d="M149.46 181.004V194H147.712V183.17L145.185 184.272L144.52 182.79L148.339 181.004H149.46ZM159.735 191.264V194H157.987V191.264H151.812V189.934L157.835 181.004H159.735V189.63H161.407V191.264H159.735ZM153.788 189.63H157.987V183.569H157.911L153.788 189.63Z" fill="black"/>
<path d="M189.692 181.004V194H187.944V183.17L185.417 184.272L184.752 182.79L188.571 181.004H189.692ZM201.102 189.934C201.102 191.175 200.672 192.214 199.81 193.05C198.949 193.886 197.885 194.304 196.618 194.304C195.605 194.304 194.687 193.987 193.863 193.354C193.04 192.721 192.495 191.866 192.229 190.789L193.787 190.162C193.977 190.922 194.319 191.524 194.813 191.967C195.32 192.41 195.909 192.632 196.58 192.632C197.391 192.632 198.05 192.385 198.556 191.891C199.076 191.384 199.335 190.738 199.335 189.953C199.335 189.155 199.076 188.503 198.556 187.996C198.05 187.489 197.397 187.236 196.599 187.236C195.675 187.236 194.946 187.61 194.414 188.357L192.647 187.597L193.483 181.004H200.304V182.676H194.946L194.471 186.4L194.547 186.419C195.193 185.9 195.979 185.64 196.903 185.64C198.069 185.64 199.057 186.052 199.867 186.875C200.691 187.698 201.102 188.718 201.102 189.934Z" fill="black"/>
<path d="M229.294 181.004V194H227.546V183.17L225.019 184.272L224.354 182.79L228.173 181.004H229.294ZM236.584 185.754C237.635 185.754 238.572 186.172 239.396 187.008C240.232 187.831 240.65 188.813 240.65 189.953C240.65 191.118 240.206 192.138 239.32 193.012C238.42 193.873 237.382 194.304 236.204 194.304C234.95 194.304 233.892 193.873 233.031 193.012C232.169 192.151 231.739 191.131 231.739 189.953C231.739 188.902 232.163 187.705 233.012 186.362L236.793 180.7L238.199 181.669L234.988 186.115L235.026 186.153C235.418 185.887 235.938 185.754 236.584 185.754ZM233.506 189.972C233.506 190.719 233.765 191.353 234.285 191.872C234.804 192.379 235.444 192.632 236.204 192.632C236.964 192.632 237.597 192.379 238.104 191.872C238.623 191.353 238.883 190.719 238.883 189.972C238.883 189.237 238.617 188.61 238.085 188.091C237.565 187.572 236.938 187.312 236.204 187.312C235.482 187.312 234.848 187.572 234.304 188.091C233.772 188.61 233.506 189.237 233.506 189.972Z" fill="black"/>
<path d="M269.581 181.004V194H267.833V183.17L265.306 184.272L264.641 182.79L268.46 181.004H269.581ZM280.35 182.79L274.042 194.304L272.484 193.506L278.507 182.676H271.933L271.971 181.004H280.35V182.79Z" fill="black"/>
<path d="M29.3865 221.004V234H27.6385V223.17L25.1115 224.272L24.4465 222.79L28.2655 221.004H29.3865ZM40.5545 230.409C40.5545 231.524 40.1302 232.448 39.2815 233.183C38.4202 233.93 37.3752 234.304 36.1465 234.304C34.9178 234.304 33.8728 233.93 33.0115 233.183C32.1628 232.448 31.7385 231.524 31.7385 230.409C31.7385 229.725 31.9222 229.104 32.2895 228.547C32.6568 227.977 33.1825 227.527 33.8665 227.198V227.122C33.3598 226.793 32.9482 226.387 32.6315 225.906C32.3275 225.425 32.1755 224.918 32.1755 224.386C32.1755 223.335 32.5492 222.454 33.2965 221.745C34.0312 221.048 34.9812 220.7 36.1465 220.7C37.3118 220.7 38.2618 221.048 38.9965 221.745C39.7438 222.454 40.1175 223.335 40.1175 224.386C40.1175 224.918 39.9592 225.425 39.6425 225.906C39.3385 226.387 38.9332 226.793 38.4265 227.122V227.198C39.1105 227.527 39.6362 227.977 40.0035 228.547C40.3708 229.104 40.5545 229.725 40.5545 230.409ZM33.9615 224.348C33.9615 224.956 34.1642 225.45 34.5695 225.83C34.9748 226.197 35.5005 226.381 36.1465 226.381C36.7925 226.381 37.3182 226.197 37.7235 225.83C38.1288 225.45 38.3315 224.956 38.3315 224.348C38.3315 223.74 38.1288 223.259 37.7235 222.904C37.3182 222.549 36.7925 222.372 36.1465 222.372C35.5005 222.372 34.9748 222.549 34.5695 222.904C34.1642 223.259 33.9615 223.74 33.9615 224.348ZM33.5245 230.314C33.5245 230.656 33.5878 230.966 33.7145 231.245C33.8538 231.524 34.0375 231.771 34.2655 231.986C34.5062 232.189 34.7848 232.347 35.1015 232.461C35.4182 232.575 35.7665 232.632 36.1465 232.632C36.5265 232.632 36.8748 232.575 37.1915 232.461C37.5082 232.347 37.7805 232.189 38.0085 231.986C38.2492 231.771 38.4328 231.524 38.5595 231.245C38.6988 230.966 38.7685 230.656 38.7685 230.314C38.7685 229.655 38.5152 229.111 38.0085 228.68C37.5018 228.237 36.8812 228.015 36.1465 228.015C35.4118 228.015 34.7848 228.237 34.2655 228.68C33.7715 229.123 33.5245 229.668 33.5245 230.314Z" fill="black"/>
<path d="M69.3401 221.004V234H67.5921V223.17L65.0651 224.272L64.4001 222.79L68.2191 221.004H69.3401ZM75.7581 229.25C74.7195 229.25 73.7758 228.838 72.9271 228.015C72.1038 227.166 71.6921 226.178 71.6921 225.051C71.6921 223.873 72.1355 222.86 73.0221 222.011C73.9088 221.137 74.9475 220.7 76.1381 220.7C77.3921 220.7 78.4498 221.131 79.3111 221.992C80.1725 222.853 80.6031 223.873 80.6031 225.051C80.6031 226.102 80.1788 227.299 79.3301 228.642L75.5491 234.304L74.1431 233.335L77.3541 228.889L77.3161 228.851C76.9108 229.117 76.3915 229.25 75.7581 229.25ZM78.8361 225.032C78.8361 224.297 78.5701 223.67 78.0381 223.151C77.5188 222.632 76.8855 222.372 76.1381 222.372C75.3908 222.372 74.7575 222.632 74.2381 223.151C73.7188 223.67 73.4591 224.297 73.4591 225.032C73.4591 225.767 73.7188 226.394 74.2381 226.913C74.7828 227.432 75.4161 227.692 76.1381 227.692C76.8601 227.692 77.4935 227.432 78.0381 226.913C78.5701 226.406 78.8361 225.779 78.8361 225.032Z" fill="black"/>
<path d="M110.55 232.328V234H102.266V232.252L105.629 228.851C106.757 227.698 107.536 226.837 107.966 226.267C108.397 225.684 108.612 225.076 108.612 224.443C108.612 223.873 108.391 223.385 107.947 222.98C107.504 222.575 106.934 222.372 106.237 222.372C105.642 222.372 105.129 222.549 104.698 222.904C104.268 223.259 103.989 223.689 103.862 224.196L102.266 223.55C102.52 222.752 103.007 222.081 103.729 221.536C104.451 220.979 105.3 220.7 106.275 220.7C107.453 220.7 108.435 221.061 109.22 221.783C110.006 222.505 110.398 223.392 110.398 224.443C110.398 225.697 109.708 227.052 108.327 228.509L104.527 232.328H110.55ZM112.213 227.502C112.213 225.526 112.701 223.898 113.676 222.619C114.652 221.34 115.906 220.7 117.438 220.7C118.971 220.7 120.225 221.346 121.2 222.638C122.176 223.917 122.663 225.539 122.663 227.502C122.663 229.453 122.176 231.08 121.2 232.385C120.225 233.664 118.971 234.304 117.438 234.304C115.906 234.304 114.652 233.664 113.676 232.385C112.701 231.08 112.213 229.453 112.213 227.502ZM120.877 227.502C120.877 226.007 120.561 224.779 119.927 223.816C119.307 222.853 118.477 222.372 117.438 222.372C116.4 222.372 115.57 222.853 114.949 223.816C114.316 224.779 113.999 226.007 113.999 227.502C113.999 228.997 114.316 230.232 114.949 231.207C115.57 232.157 116.4 232.632 117.438 232.632C118.477 232.632 119.307 232.151 119.927 231.188C120.561 230.213 120.877 228.984 120.877 227.502Z" fill="black"/>
<path d="M153.555 232.328V234H145.271V232.252L148.634 228.851C149.762 227.698 150.541 226.837 150.971 226.267C151.402 225.684 151.617 225.076 151.617 224.443C151.617 223.873 151.396 223.385 150.952 222.98C150.509 222.575 149.939 222.372 149.242 222.372C148.647 222.372 148.134 222.549 147.703 222.904C147.273 223.259 146.994 223.689 146.867 224.196L145.271 223.55C145.525 222.752 146.012 222.081 146.734 221.536C147.456 220.979 148.305 220.7 149.28 220.7C150.458 220.7 151.44 221.061 152.225 221.783C153.011 222.505 153.403 223.392 153.403 224.443C153.403 225.697 152.713 227.052 151.332 228.509L147.532 232.328H153.555ZM159.897 221.004V234H158.149V223.17L155.622 224.272L154.957 222.79L158.776 221.004H159.897Z" fill="black"/>
<path d="M191.673 232.328V234H183.389V232.252L186.752 228.851C187.879 227.698 188.658 226.837 189.089 226.267C189.52 225.684 189.735 225.076 189.735 224.443C189.735 223.873 189.513 223.385 189.07 222.98C188.627 222.575 188.057 222.372 187.36 222.372C186.765 222.372 186.252 222.549 185.821 222.904C185.39 223.259 185.112 223.689 184.985 224.196L183.389 223.55C183.642 222.752 184.13 222.081 184.852 221.536C185.574 220.979 186.423 220.7 187.398 220.7C188.576 220.7 189.558 221.061 190.343 221.783C191.128 222.505 191.521 223.392 191.521 224.443C191.521 225.697 190.831 227.052 189.45 228.509L185.65 232.328H191.673ZM201.544 232.328V234H193.26V232.252L196.623 228.851C197.75 227.698 198.529 226.837 198.96 226.267C199.391 225.684 199.606 225.076 199.606 224.443C199.606 223.873 199.384 223.385 198.941 222.98C198.498 222.575 197.928 222.372 197.231 222.372C196.636 222.372 196.123 222.549 195.692 222.904C195.261 223.259 194.983 223.689 194.856 224.196L193.26 223.55C193.513 222.752 194.001 222.081 194.723 221.536C195.445 220.979 196.294 220.7 197.269 220.7C198.447 220.7 199.429 221.061 200.214 221.783C200.999 222.505 201.392 223.392 201.392 224.443C201.392 225.697 200.702 227.052 199.321 228.509L195.521 232.328H201.544Z" fill="black"/>
<path d="M231.562 232.328V234H223.278V232.252L226.641 228.851C227.768 227.698 228.547 226.837 228.978 226.267C229.408 225.684 229.624 225.076 229.624 224.443C229.624 223.873 229.402 223.385 228.959 222.98C228.515 222.575 227.945 222.372 227.249 222.372C226.653 222.372 226.14 222.549 225.71 222.904C225.279 223.259 225 223.689 224.874 224.196L223.278 223.55C223.531 222.752 224.019 222.081 224.741 221.536C225.463 220.979 226.311 220.7 227.287 220.7C228.465 220.7 229.446 221.061 230.232 221.783C231.017 222.505 231.41 223.392 231.41 224.443C231.41 225.697 230.719 227.052 229.339 228.509L225.539 232.328H231.562ZM241.718 230.314C241.718 231.454 241.293 232.404 240.445 233.164C239.609 233.924 238.57 234.304 237.329 234.304C236.353 234.304 235.473 234.013 234.688 233.43C233.89 232.822 233.351 232.03 233.073 231.055L234.669 230.39C234.871 231.112 235.201 231.669 235.657 232.062C236.125 232.442 236.683 232.632 237.329 232.632C238.038 232.632 238.652 232.41 239.172 231.967C239.678 231.511 239.932 230.96 239.932 230.314C239.932 229.668 239.666 229.123 239.134 228.68C238.614 228.237 237.987 228.015 237.253 228.015H236.132V226.381H237.12C237.816 226.381 238.386 226.191 238.83 225.811C239.273 225.418 239.495 224.912 239.495 224.291C239.495 223.721 239.286 223.259 238.868 222.904C238.45 222.549 237.899 222.372 237.215 222.372C236.113 222.372 235.359 222.936 234.954 224.063L233.339 223.379C233.63 222.581 234.118 221.935 234.802 221.441C235.486 220.947 236.29 220.7 237.215 220.7C238.367 220.7 239.336 221.042 240.122 221.726C240.894 222.385 241.281 223.24 241.281 224.291C241.281 225.545 240.698 226.476 239.533 227.084V227.16C240.217 227.451 240.749 227.876 241.129 228.433C241.521 228.99 241.718 229.617 241.718 230.314Z" fill="black"/>
<path d="M271.014 232.328V234H262.73V232.252L266.093 228.851C267.221 227.698 268 226.837 268.43 226.267C268.861 225.684 269.076 225.076 269.076 224.443C269.076 223.873 268.855 223.385 268.411 222.98C267.968 222.575 267.398 222.372 266.701 222.372C266.106 222.372 265.593 222.549 265.162 222.904C264.732 223.259 264.453 223.689 264.326 224.196L262.73 223.55C262.984 222.752 263.471 222.081 264.193 221.536C264.915 220.979 265.764 220.7 266.739 220.7C267.917 220.7 268.899 221.061 269.684 221.783C270.47 222.505 270.862 223.392 270.862 224.443C270.862 225.697 270.172 227.052 268.791 228.509L264.991 232.328H271.014ZM280.524 231.264V234H278.776V231.264H272.601V229.934L278.624 221.004H280.524V229.63H282.196V231.264H280.524ZM274.577 229.63H278.776V223.569H278.7L274.577 229.63Z" fill="black"/>
<path d="M31.8389 272.328V274H23.5549V272.252L26.9179 268.851C28.0453 267.698 28.8243 266.837 29.2549 266.267C29.6856 265.684 29.9009 265.076 29.9009 264.443C29.9009 263.873 29.6793 263.385 29.2359 262.98C28.7926 262.575 28.2226 262.372 27.5259 262.372C26.9306 262.372 26.4176 262.549 25.9869 262.904C25.5563 263.259 25.2776 263.689 25.1509 264.196L23.5549 263.55C23.8083 262.752 24.2959 262.081 25.0179 261.536C25.7399 260.979 26.5886 260.7 27.5639 260.7C28.7419 260.7 29.7236 261.061 30.5089 261.783C31.2943 262.505 31.6869 263.392 31.6869 264.443C31.6869 265.697 30.9966 267.052 29.6159 268.509L25.8159 272.328H31.8389ZM42.299 269.934C42.299 271.175 41.8683 272.214 41.007 273.05C40.1457 273.886 39.0817 274.304 37.815 274.304C36.8017 274.304 35.8833 273.987 35.06 273.354C34.2367 272.721 33.692 271.866 33.426 270.789L34.984 270.162C35.174 270.922 35.516 271.524 36.01 271.967C36.5167 272.41 37.1057 272.632 37.777 272.632C38.5877 272.632 39.2463 272.385 39.753 271.891C40.2723 271.384 40.532 270.738 40.532 269.953C40.532 269.155 40.2723 268.503 39.753 267.996C39.2463 267.489 38.594 267.236 37.796 267.236C36.8713 267.236 36.143 267.61 35.611 268.357L33.844 267.597L34.68 261.004H41.501V262.676H36.143L35.668 266.4L35.744 266.419C36.39 265.9 37.1753 265.64 38.1 265.64C39.2653 265.64 40.2533 266.052 41.064 266.875C41.8873 267.698 42.299 268.718 42.299 269.934Z" fill="black"/>
<path d="M71.8946 272.328V274H63.6106V272.252L66.9736 268.851C68.1009 267.698 68.8799 266.837 69.3106 266.267C69.7413 265.684 69.9566 265.076 69.9566 264.443C69.9566 263.873 69.7349 263.385 69.2916 262.98C68.8483 262.575 68.2783 262.372 67.5816 262.372C66.9863 262.372 66.4733 262.549 66.0426 262.904C65.6119 263.259 65.3333 263.689 65.2066 264.196L63.6106 263.55C63.8639 262.752 64.3516 262.081 65.0736 261.536C65.7956 260.979 66.6443 260.7 67.6196 260.7C68.7976 260.7 69.7793 261.061 70.5646 261.783C71.3499 262.505 71.7426 263.392 71.7426 264.443C71.7426 265.697 71.0523 267.052 69.6716 268.509L65.8716 272.328H71.8946ZM78.3267 265.754C79.378 265.754 80.3153 266.172 81.1387 267.008C81.9747 267.831 82.3927 268.813 82.3927 269.953C82.3927 271.118 81.9493 272.138 81.0627 273.012C80.1633 273.873 79.1247 274.304 77.9467 274.304C76.6927 274.304 75.635 273.873 74.7737 273.012C73.9123 272.151 73.4817 271.131 73.4817 269.953C73.4817 268.902 73.906 267.705 74.7547 266.362L78.5357 260.7L79.9417 261.669L76.7307 266.115L76.7687 266.153C77.1613 265.887 77.6807 265.754 78.3267 265.754ZM75.2487 269.972C75.2487 270.719 75.5083 271.353 76.0277 271.872C76.547 272.379 77.1867 272.632 77.9467 272.632C78.7067 272.632 79.34 272.379 79.8467 271.872C80.366 271.353 80.6257 270.719 80.6257 269.972C80.6257 269.237 80.3597 268.61 79.8277 268.091C79.3083 267.572 78.6813 267.312 77.9467 267.312C77.2247 267.312 76.5913 267.572 76.0467 268.091C75.5147 268.61 75.2487 269.237 75.2487 269.972Z" fill="black"/>
<path d="M111.636 272.328V274H103.352V272.252L106.715 268.851C107.842 267.698 108.621 266.837 109.052 266.267C109.482 265.684 109.698 265.076 109.698 264.443C109.698 263.873 109.476 263.385 109.033 262.98C108.589 262.575 108.019 262.372 107.323 262.372C106.727 262.372 106.214 262.549 105.784 262.904C105.353 263.259 105.074 263.689 104.948 264.196L103.352 263.55C103.605 262.752 104.093 262.081 104.815 261.536C105.537 260.979 106.385 260.7 107.361 260.7C108.539 260.7 109.52 261.061 110.306 261.783C111.091 262.505 111.484 263.392 111.484 264.443C111.484 265.697 110.793 267.052 109.413 268.509L105.613 272.328H111.636ZM121.64 262.79L115.332 274.304L113.774 273.506L119.797 262.676H113.223L113.261 261.004H121.64V262.79Z" fill="black"/>
<path d="M151.941 272.328V274H143.657V272.252L147.02 268.851C148.147 267.698 148.926 266.837 149.357 266.267C149.788 265.684 150.003 265.076 150.003 264.443C150.003 263.873 149.781 263.385 149.338 262.98C148.895 262.575 148.325 262.372 147.628 262.372C147.033 262.372 146.52 262.549 146.089 262.904C145.658 263.259 145.38 263.689 145.253 264.196L143.657 263.55C143.91 262.752 144.398 262.081 145.12 261.536C145.842 260.979 146.691 260.7 147.666 260.7C148.844 260.7 149.826 261.061 150.611 261.783C151.396 262.505 151.789 263.392 151.789 264.443C151.789 265.697 151.099 267.052 149.718 268.509L145.918 272.328H151.941ZM162.344 270.409C162.344 271.524 161.92 272.448 161.071 273.183C160.21 273.93 159.165 274.304 157.936 274.304C156.707 274.304 155.662 273.93 154.801 273.183C153.952 272.448 153.528 271.524 153.528 270.409C153.528 269.725 153.712 269.104 154.079 268.547C154.446 267.977 154.972 267.527 155.656 267.198V267.122C155.149 266.793 154.738 266.387 154.421 265.906C154.117 265.425 153.965 264.918 153.965 264.386C153.965 263.335 154.339 262.454 155.086 261.745C155.821 261.048 156.771 260.7 157.936 260.7C159.101 260.7 160.051 261.048 160.786 261.745C161.533 262.454 161.907 263.335 161.907 264.386C161.907 264.918 161.749 265.425 161.432 265.906C161.128 266.387 160.723 266.793 160.216 267.122V267.198C160.9 267.527 161.426 267.977 161.793 268.547C162.16 269.104 162.344 269.725 162.344 270.409ZM155.751 264.348C155.751 264.956 155.954 265.45 156.359 265.83C156.764 266.197 157.29 266.381 157.936 266.381C158.582 266.381 159.108 266.197 159.513 265.83C159.918 265.45 160.121 264.956 160.121 264.348C160.121 263.74 159.918 263.259 159.513 262.904C159.108 262.549 158.582 262.372 157.936 262.372C157.29 262.372 156.764 262.549 156.359 262.904C155.954 263.259 155.751 263.74 155.751 264.348ZM155.314 270.314C155.314 270.656 155.377 270.966 155.504 271.245C155.643 271.524 155.827 271.771 156.055 271.986C156.296 272.189 156.574 272.347 156.891 272.461C157.208 272.575 157.556 272.632 157.936 272.632C158.316 272.632 158.664 272.575 158.981 272.461C159.298 272.347 159.57 272.189 159.798 271.986C160.039 271.771 160.222 271.524 160.349 271.245C160.488 270.966 160.558 270.656 160.558 270.314C160.558 269.655 160.305 269.111 159.798 268.68C159.291 268.237 158.671 268.015 157.936 268.015C157.201 268.015 156.574 268.237 156.055 268.68C155.561 269.123 155.314 269.668 155.314 270.314Z" fill="black"/>
<path d="M191.895 272.328V274H183.611V272.252L186.974 268.851C188.101 267.698 188.88 266.837 189.311 266.267C189.741 265.684 189.957 265.076 189.957 264.443C189.957 263.873 189.735 263.385 189.292 262.98C188.848 262.575 188.278 262.372 187.582 262.372C186.986 262.372 186.473 262.549 186.043 262.904C185.612 263.259 185.333 263.689 185.207 264.196L183.611 263.55C183.864 262.752 184.352 262.081 185.074 261.536C185.796 260.979 186.644 260.7 187.62 260.7C188.798 260.7 189.779 261.061 190.565 261.783C191.35 262.505 191.743 263.392 191.743 264.443C191.743 265.697 191.052 267.052 189.672 268.509L185.872 272.328H191.895ZM197.548 269.25C196.509 269.25 195.565 268.838 194.717 268.015C193.893 267.166 193.482 266.178 193.482 265.051C193.482 263.873 193.925 262.86 194.812 262.011C195.698 261.137 196.737 260.7 197.928 260.7C199.182 260.7 200.239 261.131 201.101 261.992C201.962 262.853 202.393 263.873 202.393 265.051C202.393 266.102 201.968 267.299 201.12 268.642L197.339 274.304L195.933 273.335L199.144 268.889L199.106 268.851C198.7 269.117 198.181 269.25 197.548 269.25ZM200.626 265.032C200.626 264.297 200.36 263.67 199.828 263.151C199.308 262.632 198.675 262.372 197.928 262.372C197.18 262.372 196.547 262.632 196.028 263.151C195.508 263.67 195.249 264.297 195.249 265.032C195.249 265.767 195.508 266.394 196.028 266.913C196.572 267.432 197.206 267.692 197.928 267.692C198.65 267.692 199.283 267.432 199.828 266.913C200.36 266.406 200.626 265.779 200.626 265.032Z" fill="black"/>
<path d="M231.224 270.314C231.224 271.454 230.8 272.404 229.951 273.164C229.115 273.924 228.076 274.304 226.835 274.304C225.86 274.304 224.979 274.013 224.194 273.43C223.396 272.822 222.858 272.03 222.579 271.055L224.175 270.39C224.378 271.112 224.707 271.669 225.163 272.062C225.632 272.442 226.189 272.632 226.835 272.632C227.544 272.632 228.159 272.41 228.678 271.967C229.185 271.511 229.438 270.96 229.438 270.314C229.438 269.668 229.172 269.123 228.64 268.68C228.121 268.237 227.494 268.015 226.759 268.015H225.638V266.381H226.626C227.323 266.381 227.893 266.191 228.336 265.811C228.779 265.418 229.001 264.912 229.001 264.291C229.001 263.721 228.792 263.259 228.374 262.904C227.956 262.549 227.405 262.372 226.721 262.372C225.619 262.372 224.865 262.936 224.46 264.063L222.845 263.379C223.136 262.581 223.624 261.935 224.308 261.441C224.992 260.947 225.796 260.7 226.721 260.7C227.874 260.7 228.843 261.042 229.628 261.726C230.401 262.385 230.787 263.24 230.787 264.291C230.787 265.545 230.204 266.476 229.039 267.084V267.16C229.723 267.451 230.255 267.876 230.635 268.433C231.028 268.99 231.224 269.617 231.224 270.314ZM232.825 267.502C232.825 265.526 233.312 263.898 234.288 262.619C235.263 261.34 236.517 260.7 238.05 260.7C239.582 260.7 240.836 261.346 241.812 262.638C242.787 263.917 243.275 265.539 243.275 267.502C243.275 269.453 242.787 271.08 241.812 272.385C240.836 273.664 239.582 274.304 238.05 274.304C236.517 274.304 235.263 273.664 234.288 272.385C233.312 271.08 232.825 269.453 232.825 267.502ZM241.489 267.502C241.489 266.007 241.172 264.779 240.539 263.816C239.918 262.853 239.088 262.372 238.05 262.372C237.011 262.372 236.181 262.853 235.561 263.816C234.927 264.779 234.611 266.007 234.611 267.502C234.611 268.997 234.927 270.232 235.561 271.207C236.181 272.157 237.011 272.632 238.05 272.632C239.088 272.632 239.918 272.151 240.539 271.188C241.172 270.213 241.489 268.984 241.489 267.502Z" fill="black"/>
<path d="M273.229 270.314C273.229 271.454 272.805 272.404 271.956 273.164C271.12 273.924 270.081 274.304 268.84 274.304C267.865 274.304 266.984 274.013 266.199 273.43C265.401 272.822 264.863 272.03 264.584 271.055L266.18 270.39C266.383 271.112 266.712 271.669 267.168 272.062C267.637 272.442 268.194 272.632 268.84 272.632C269.549 272.632 270.164 272.41 270.683 271.967C271.19 271.511 271.443 270.96 271.443 270.314C271.443 269.668 271.177 269.123 270.645 268.68C270.126 268.237 269.499 268.015 268.764 268.015H267.643V266.381H268.631C269.328 266.381 269.898 266.191 270.341 265.811C270.784 265.418 271.006 264.912 271.006 264.291C271.006 263.721 270.797 263.259 270.379 262.904C269.961 262.549 269.41 262.372 268.726 262.372C267.624 262.372 266.87 262.936 266.465 264.063L264.85 263.379C265.141 262.581 265.629 261.935 266.313 261.441C266.997 260.947 267.801 260.7 268.726 260.7C269.879 260.7 270.848 261.042 271.633 261.726C272.406 262.385 272.792 263.24 272.792 264.291C272.792 265.545 272.209 266.476 271.044 267.084V267.16C271.728 267.451 272.26 267.876 272.64 268.433C273.033 268.99 273.229 269.617 273.229 270.314ZM279.508 261.004V274H277.76V263.17L275.233 264.272L274.568 262.79L278.387 261.004H279.508Z" fill="black"/>
<path d="M34.554 301.004V314H32.806V303.17L30.279 304.272L29.614 302.79L33.433 301.004H34.554Z" fill="#9E9E9E"/>
<path d="M76.6085 312.328V314H68.3245V312.252L71.6875 308.851C72.8148 307.698 73.5938 306.837 74.0245 306.267C74.4551 305.684 74.6705 305.076 74.6705 304.443C74.6705 303.873 74.4488 303.385 74.0055 302.98C73.5621 302.575 72.9921 302.372 72.2955 302.372C71.7001 302.372 71.1871 302.549 70.7565 302.904C70.3258 303.259 70.0471 303.689 69.9205 304.196L68.3245 303.55C68.5778 302.752 69.0655 302.081 69.7875 301.536C70.5095 300.979 71.3581 300.7 72.3335 300.7C73.5115 300.7 74.4931 301.061 75.2785 301.783C76.0638 302.505 76.4565 303.392 76.4565 304.443C76.4565 305.697 75.7661 307.052 74.3855 308.509L70.5855 312.328H76.6085Z" fill="#9E9E9E"/>
<path d="M117.282 310.314C117.282 311.454 116.858 312.404 116.009 313.164C115.173 313.924 114.134 314.304 112.893 314.304C111.918 314.304 111.037 314.013 110.252 313.43C109.454 312.822 108.916 312.03 108.637 311.055L110.233 310.39C110.436 311.112 110.765 311.669 111.221 312.062C111.69 312.442 112.247 312.632 112.893 312.632C113.602 312.632 114.217 312.41 114.736 311.967C115.243 311.511 115.496 310.96 115.496 310.314C115.496 309.668 115.23 309.123 114.698 308.68C114.179 308.237 113.552 308.015 112.817 308.015H111.696V306.381H112.684C113.381 306.381 113.951 306.191 114.394 305.811C114.837 305.418 115.059 304.912 115.059 304.291C115.059 303.721 114.85 303.259 114.432 302.904C114.014 302.549 113.463 302.372 112.779 302.372C111.677 302.372 110.923 302.936 110.518 304.063L108.903 303.379C109.194 302.581 109.682 301.935 110.366 301.441C111.05 300.947 111.854 300.7 112.779 300.7C113.932 300.7 114.901 301.042 115.686 301.726C116.459 302.385 116.845 303.24 116.845 304.291C116.845 305.545 116.262 306.476 115.097 307.084V307.16C115.781 307.451 116.313 307.876 116.693 308.433C117.086 308.99 117.282 309.617 117.282 310.314Z" fill="#9E9E9E"/>
<path d="M155.589 311.264V314H153.841V311.264H147.666V309.934L153.689 301.004H155.589V309.63H157.261V311.264H155.589ZM149.642 309.63H153.841V303.569H153.765L149.642 309.63Z" fill="#9E9E9E"/>
<path d="M197.363 309.934C197.363 311.175 196.933 312.214 196.071 313.05C195.21 313.886 194.146 314.304 192.879 314.304C191.866 314.304 190.948 313.987 190.124 313.354C189.301 312.721 188.756 311.866 188.49 310.789L190.048 310.162C190.238 310.922 190.58 311.524 191.074 311.967C191.581 312.41 192.17 312.632 192.841 312.632C193.652 312.632 194.311 312.385 194.817 311.891C195.337 311.384 195.596 310.738 195.596 309.953C195.596 309.155 195.337 308.503 194.817 307.996C194.311 307.489 193.658 307.236 192.86 307.236C191.936 307.236 191.207 307.61 190.675 308.357L188.908 307.597L189.744 301.004H196.565V302.676H191.207L190.732 306.4L190.808 306.419C191.454 305.9 192.24 305.64 193.164 305.64C194.33 305.64 195.318 306.052 196.128 306.875C196.952 307.698 197.363 308.718 197.363 309.934Z" fill="#9E9E9E"/>
<path d="M233.391 305.754C234.442 305.754 235.38 306.172 236.203 307.008C237.039 307.831 237.457 308.813 237.457 309.953C237.457 311.118 237.014 312.138 236.127 313.012C235.228 313.873 234.189 314.304 233.011 314.304C231.757 314.304 230.699 313.873 229.838 313.012C228.977 312.151 228.546 311.131 228.546 309.953C228.546 308.902 228.97 307.705 229.819 306.362L233.6 300.7L235.006 301.669L231.795 306.115L231.833 306.153C232.226 305.887 232.745 305.754 233.391 305.754ZM230.313 309.972C230.313 310.719 230.573 311.353 231.092 311.872C231.611 312.379 232.251 312.632 233.011 312.632C233.771 312.632 234.404 312.379 234.911 311.872C235.43 311.353 235.69 310.719 235.69 309.972C235.69 309.237 235.424 308.61 234.892 308.091C234.373 307.572 233.746 307.312 233.011 307.312C232.289 307.312 231.656 307.572 231.111 308.091C230.579 308.61 230.313 309.237 230.313 309.972Z" fill="#9E9E9E"/>
<path d="M276.704 302.79L270.396 314.304L268.838 313.506L274.861 302.676H268.287L268.325 301.004H276.704V302.79Z" fill="#9E9E9E"/>
<defs>
<filter id="filter0_dii_246_376" x="207.5" y="126" width="51" height="51" filterUnits="userSpaceOnUse" color-interpolation-filters="sRGB">
<feFlood flood-opacity="0" result="BackgroundImageFix"/>
<feColorMatrix in="SourceAlpha" type="matrix" values="0 0 0 0 0 0 0 0 0 0 0 0 0 0 0 0 0 0 127 0" result="hardAlpha"/>
<feOffset dy="4"/>
<feGaussianBlur stdDeviation="4"/>
<feComposite in2="hardAlpha" operator="out"/>
<feColorMatrix type="matrix" values="0 0 0 0 0.0916341 0 0 0 0 0.0916341 0 0 0 0 0.0916341 0 0 0 0.41 0"/>
<feBlend mode="normal" in2="BackgroundImageFix" result="effect1_dropShadow_246_376"/>
<feBlend mode="normal" in="SourceGraphic" in2="effect1_dropShadow_246_376" result="shape"/>
<feColorMatrix in="SourceAlpha" type="matrix" values="0 0 0 0 0 0 0 0 0 0 0 0 0 0 0 0 0 0 127 0" result="hardAlpha"/>
<feOffset dy="4"/>
<feGaussianBlur stdDeviation="3"/>
<feComposite in2="hardAlpha" operator="arithmetic" k2="-1" k3="1"/>
<feColorMatrix type="matrix" values="0 0 0 0 1 0 0 0 0 1 0 0 0 0 1 0 0 0 0.25 0"/>
<feBlend mode="normal" in2="shape" result="effect2_innerShadow_246_376"/>
<feColorMatrix in="SourceAlpha" type="matrix" values="0 0 0 0 0 0 0 0 0 0 0 0 0 0 0 0 0 0 127 0" result="hardAlpha"/>
<feOffset dy="-4"/>
<feGaussianBlur stdDeviation="4"/>
<feComposite in2="hardAlpha" operator="arithmetic" k2="-1" k3="1"/>
<feColorMatrix type="matrix" values="0 0 0 0 0.0901961 0 0 0 0 0.0901961 0 0 0 0 0.0901961 0 0 0 0.25 0"/>
<feBlend mode="normal" in2="effect2_innerShadow_246_376" result="effect3_innerShadow_246_376"/>
</filter>
</defs>
</svg>
