<svg width="30" height="30" viewBox="0 0 30 30" fill="none" xmlns="http://www.w3.org/2000/svg">
<path d="M26.25 11.25C26.5815 11.25 26.8995 11.3817 27.1339 11.6161C27.3683 11.8505 27.5 12.1685 27.5 12.5C27.5 12.8315 27.3683 13.1495 27.1339 13.3839C26.8995 13.6183 26.5815 13.75 26.25 13.75H20.6625L20.5 15.2625L17.75 21.4375C17.5 22.0625 16.8375 22.5 16.075 22.5H10.625C9.625 22.5 8.75 21.5875 8.75 20.625V12.5C8.75 12.0125 8.95 11.575 9.2875 11.25L14.5375 5.125L15.5 6.05C15.75 6.2875 15.9 6.6125 15.9 6.975L15.8625 7.25L13.75 11.25H26.25ZM2.5 22.5V12.5H6.25V22.5H2.5Z" fill="white"/>
</svg>
